<?xml version="1.0" encoding="UTF-8" standalone="no"?>
<!DOCTYPE svg PUBLIC "-//W3C//DTD SVG 1.1//EN" "http://www.w3.org/Graphics/SVG/1.1/DTD/svg11.dtd">
<!-- Generated by graphviz version 2.40.1 (20161225.0304)
 -->
<!-- Title: dd Pages: 1 -->
<svg width="927pt" height="222pt" viewBox="0.00 0.00 926.65 221.60" xmlns="http://www.w3.org/2000/svg" xmlns:xlink="http://www.w3.org/1999/xlink">
<g id="graph0" class="graph" transform="scale(1 1) rotate(0) translate(4 217.6)">
<title>dd</title>
<!-- n0 -->
<g id="node1" class="node">
<title>n0</title>
<polygon fill="none" stroke="#000000" points="536.6098,-213.6 374.242,-213.6 374.242,-177.6 536.6098,-177.6 536.6098,-213.6"/>
<text text-anchor="middle" x="455.4259" y="-191.4" font-family="Times,serif" font-size="14.00" fill="#000000"> $0 1.00 +$1 1.00 &lt;= 0.00</text>
</g>
<!-- n1 -->
<g id="node2" class="node">
<title>n1</title>
<polygon fill="none" stroke="#000000" points="422.1098,-124.8 252.742,-124.8 252.742,-88.8 422.1098,-88.8 422.1098,-124.8"/>
<text text-anchor="middle" x="337.4259" y="-102.6" font-family="Times,serif" font-size="14.00" fill="#000000">−$0 1.00 +$1 1.00 &lt;= 0.00</text>
</g>
<!-- n0&#45;&gt;n1 -->
<g id="edge1" class="edge">
<title>n0-&gt;n1</title>
<path fill="none" stroke="#000000" stroke-dasharray="5,2" d="M431.2621,-177.4157C413.4446,-164.0073 389.0234,-145.6293 369.561,-130.9831"/>
<polygon fill="#000000" stroke="#000000" points="371.6522,-128.1764 361.5574,-124.96 367.4431,-133.7696 371.6522,-128.1764"/>
<text text-anchor="middle" x="410.9259" y="-147" font-family="Times,serif" font-size="14.00" fill="#000000">0</text>
</g>
<!-- n2 -->
<g id="node3" class="node">
<title>n2</title>
<polygon fill="none" stroke="#000000" points="658.1098,-124.8 488.742,-124.8 488.742,-88.8 658.1098,-88.8 658.1098,-124.8"/>
<text text-anchor="middle" x="573.4259" y="-102.6" font-family="Times,serif" font-size="14.00" fill="#000000">−$0 1.00 +$1 1.00 &lt;= 0.00</text>
</g>
<!-- n0&#45;&gt;n2 -->
<g id="edge2" class="edge">
<title>n0-&gt;n2</title>
<path fill="none" stroke="#000000" d="M479.5897,-177.4157C497.4072,-164.0073 521.8284,-145.6293 541.2907,-130.9831"/>
<polygon fill="#000000" stroke="#000000" points="543.4087,-133.7696 549.2944,-124.96 539.1996,-128.1764 543.4087,-133.7696"/>
<text text-anchor="middle" x="528.9259" y="-147" font-family="Times,serif" font-size="14.00" fill="#000000">1</text>
</g>
<!-- n3 -->
<g id="node4" class="node">
<title>n3</title>
<ellipse fill="none" stroke="#000000" cx="106.4259" cy="-18" rx="106.3518" ry="18"/>
<text text-anchor="middle" x="106.4259" y="-13.8" font-family="Times,serif" font-size="14.00" fill="#000000"> $0 0.00 +$1 1.00 + 0.00</text>
</g>
<!-- n1&#45;&gt;n3 -->
<g id="edge3" class="edge">
<title>n1-&gt;n3</title>
<path fill="none" stroke="#000000" stroke-dasharray="5,2" d="M290.4011,-88.723C252.2566,-74.0596 198.5171,-53.4013 158.9641,-38.1965"/>
<polygon fill="#000000" stroke="#000000" points="160.0764,-34.8744 149.4864,-34.5531 157.5646,-41.4083 160.0764,-34.8744"/>
<text text-anchor="middle" x="246.9259" y="-58.2" font-family="Times,serif" font-size="14.00" fill="#000000">0</text>
</g>
<!-- n4 -->
<g id="node5" class="node">
<title>n4</title>
<ellipse fill="none" stroke="#000000" cx="337.4259" cy="-18" rx="106.3518" ry="18"/>
<text text-anchor="middle" x="337.4259" y="-13.8" font-family="Times,serif" font-size="14.00" fill="#000000"> $0 1.00 +$1 0.00 + 0.00</text>
</g>
<!-- n1&#45;&gt;n4 -->
<g id="edge4" class="edge">
<title>n1-&gt;n4</title>
<path fill="none" stroke="#000000" d="M337.4259,-88.4006C337.4259,-76.2949 337.4259,-60.2076 337.4259,-46.4674"/>
<polygon fill="#000000" stroke="#000000" points="340.926,-46.072 337.4259,-36.072 333.926,-46.0721 340.926,-46.072"/>
<text text-anchor="middle" x="340.9259" y="-58.2" font-family="Times,serif" font-size="14.00" fill="#000000">1</text>
</g>
<!-- n5 -->
<g id="node6" class="node">
<title>n5</title>
<ellipse fill="none" stroke="#000000" cx="573.4259" cy="-18" rx="111.0092" ry="18"/>
<text text-anchor="middle" x="573.4259" y="-13.8" font-family="Times,serif" font-size="14.00" fill="#000000">−$0 1.00 +$1 0.00 + 0.00</text>
</g>
<!-- n2&#45;&gt;n5 -->
<g id="edge5" class="edge">
<title>n2-&gt;n5</title>
<path fill="none" stroke="#000000" stroke-dasharray="5,2" d="M573.4259,-88.4006C573.4259,-76.2949 573.4259,-60.2076 573.4259,-46.4674"/>
<polygon fill="#000000" stroke="#000000" points="576.926,-46.072 573.4259,-36.072 569.926,-46.0721 576.926,-46.072"/>
<text text-anchor="middle" x="576.9259" y="-58.2" font-family="Times,serif" font-size="14.00" fill="#000000">0</text>
</g>
<!-- n6 -->
<g id="node7" class="node">
<title>n6</title>
<ellipse fill="none" stroke="#000000" cx="810.4259" cy="-18" rx="108.4465" ry="18"/>
<text text-anchor="middle" x="810.4259" y="-13.8" font-family="Times,serif" font-size="14.00" fill="#000000"> $0 0.00 −$1 1.00 + 0.00</text>
</g>
<!-- n2&#45;&gt;n6 -->
<g id="edge6" class="edge">
<title>n2-&gt;n6</title>
<path fill="none" stroke="#000000" d="M621.672,-88.723C660.8901,-74.0286 716.1758,-53.3139 756.7802,-38.1001"/>
<polygon fill="#000000" stroke="#000000" points="758.1107,-41.3393 766.2469,-34.5531 755.6546,-34.7843 758.1107,-41.3393"/>
<text text-anchor="middle" x="716.9259" y="-58.2" font-family="Times,serif" font-size="14.00" fill="#000000">1</text>
</g>
</g>
</svg>